<svg width="24" height="24" viewBox="0 0 24 24" fill="none" xmlns="http://www.w3.org/2000/svg">
<path d="M23.4669 12.5689C23.3246 12.2133 23.1113 11.8933 22.8269 11.6267C21.458 10.3289 18.258 10.72 16.498 11.3956C16.0358 11.5733 15.6802 11.7511 15.4846 11.8756C15.4669 11.6089 15.4135 11.3422 15.3424 11.0933C15.3602 11.1111 15.3958 11.1111 15.4313 11.1289C15.5024 11.1467 15.5913 11.1467 15.7335 11.1467C15.8758 11.1289 16.0535 11.1289 16.2846 11.0933C18.098 10.7733 20.1069 9.49335 21.4402 7.50224C21.5824 7.2889 21.7069 7.04001 21.8135 6.75557C21.9202 6.47113 21.9913 6.13335 21.9558 5.77779C21.938 5.42224 21.8135 5.0489 21.5824 4.74668C21.3513 4.42668 20.9958 4.21335 20.6224 4.10668C20.2669 4.00002 19.8758 3.96446 19.5024 4.01779C19.1291 4.07113 18.7735 4.17779 18.4535 4.33779C17.3335 4.8889 15.6802 6.31113 14.6669 8.00001C14.2402 8.7289 14.0624 9.2089 14.098 9.22668C13.9913 9.15557 13.8846 9.06668 13.778 9.01335C13.6535 8.94224 13.5469 8.8889 13.4224 8.83557L13.4402 8.81779C13.5291 8.71113 13.6535 8.58668 13.778 8.39113C15.0224 6.6489 15.0935 3.98224 14.418 2.31113C14.3291 2.08002 14.1869 1.81335 14.0091 1.58224C13.8313 1.33335 13.5824 1.12002 13.298 0.942238C13.0135 0.764461 12.658 0.640016 12.3024 0.622238C11.9291 0.604461 11.5558 0.693349 11.218 0.853349C10.8802 1.01335 10.5958 1.26224 10.3646 1.56446C10.1335 1.86668 9.99131 2.20446 9.88465 2.54224C9.4402 4.0889 9.74242 6.15113 10.2935 7.68001C10.5246 8.30224 10.738 8.71113 10.8269 8.83557C10.7024 8.90668 10.6491 8.96001 10.6491 8.97779C10.6669 8.99557 10.7913 8.96001 11.0402 8.8889C11.2891 8.83557 11.6624 8.78224 12.0891 8.83557C13.9735 9.06668 15.2002 10.7911 14.8269 12.8533C14.7024 13.5467 14.4002 14.2045 13.9735 14.72C13.7602 14.9689 13.5113 15.1645 13.2446 15.2889C12.978 15.4133 12.6758 15.4667 12.3735 15.4667C10.4891 15.4489 8.51576 13.7067 8.71131 11.8222C8.87131 10.3645 10.0802 9.61779 10.3291 9.35112C10.4358 9.26224 10.418 9.2089 10.4002 9.15557C10.3824 9.10224 10.3469 9.06668 10.2046 9.10224C10.0624 9.13779 9.77798 9.22668 9.35131 9.54668C9.13798 9.70668 8.88909 9.95557 8.6402 10.2933C8.62242 10.3289 8.60465 10.3645 8.56909 10.4C8.35576 10.3111 8.03576 10.1867 7.64465 10.0089C6.16909 9.33335 3.59131 7.68001 3.16465 6.18668C3.09353 5.90224 3.07576 5.61779 3.12909 5.35113C3.18242 5.08446 3.30687 4.85335 3.48465 4.69335C3.66242 4.53335 3.89354 4.4089 4.14242 4.35557C4.62242 4.23113 5.1202 4.33779 5.54687 4.49779C7.0402 5.03113 8.62243 6.22224 9.54687 7.6089C9.74242 7.89335 9.88465 8.12446 9.99131 8.32001C10.098 8.51557 10.1691 8.65779 10.2402 8.78224C10.2935 8.8889 10.3469 8.97779 10.3824 9.03113C10.4713 9.13779 10.5069 9.12001 10.5602 9.12001C10.6135 9.10224 10.6491 9.08446 10.6491 8.94224C10.6491 8.87113 10.6313 8.78224 10.6135 8.64001C10.578 8.51557 10.5424 8.33779 10.4358 8.10668C10.3469 7.89335 10.2224 7.6089 10.0446 7.2889C9.15576 5.74224 7.41354 4.4089 5.77798 3.82224C5.52909 3.73335 5.26242 3.66224 4.9602 3.62668C4.65798 3.59113 4.3202 3.59113 3.98242 3.68002C3.64465 3.7689 3.30687 3.9289 3.02242 4.21335C2.73798 4.49779 2.5602 4.87113 2.50687 5.26224C2.43576 5.65335 2.48909 6.04446 2.59576 6.40001C3.14687 8.12446 5.88465 9.74224 7.59131 10.3111C7.98242 10.4356 8.30242 10.5245 8.53354 10.5778C8.46242 10.7022 8.39131 10.8267 8.33798 10.9867C8.33798 10.9867 8.3202 10.9867 8.3202 10.9689C8.1602 10.8445 8.0002 10.7378 7.80465 10.6667C7.59131 10.5778 7.34242 10.4711 7.00465 10.3822C5.6002 10.0089 3.69798 10.1511 1.84909 11.0933C1.63576 11.2178 1.40465 11.36 1.19131 11.5556C0.97798 11.7511 0.764646 12 0.622424 12.2845C0.480202 12.5689 0.373535 12.9067 0.373535 13.28C0.373535 13.6533 0.480202 14.0267 0.693535 14.3289C0.889091 14.6311 1.17354 14.8978 1.49354 15.0756C1.81354 15.2533 2.16909 15.36 2.50687 15.3956C4.30242 15.6267 7.25354 14.5956 8.37354 13.5645C8.40909 13.6533 8.44465 13.7245 8.49798 13.7956C8.62242 14.0089 8.76465 14.2222 8.92465 14.4178C8.90687 14.4178 8.90687 14.4178 8.88909 14.4356C8.76465 14.4889 8.58687 14.5778 8.37354 14.7022C6.45354 15.8756 5.20909 18.4889 4.9602 20.3911C4.92465 20.6578 4.90687 20.96 4.94242 21.28C4.97798 21.6 5.06687 21.9378 5.24465 22.2756C5.42242 22.5956 5.68909 22.8978 6.02687 23.1111C6.38242 23.3245 6.80909 23.3956 7.2002 23.3778C7.60909 23.36 7.98242 23.2356 8.33798 23.04C10.1158 22.0445 11.5558 18.24 11.5735 16.0533C11.7869 16.0889 12.018 16.1245 12.2491 16.1245C12.0713 17.9556 12.9246 20.48 14.8802 22.3645C16.3558 23.7333 17.8313 23.36 18.4002 22.24C18.578 21.9022 18.6669 21.5289 18.6846 21.1378C18.7558 19.1111 16.3024 15.9289 14.6313 14.9333C14.7024 14.8445 14.7558 14.7556 14.8091 14.6489C14.8091 14.6667 14.8269 14.6845 14.8446 14.7022C14.8802 14.7556 14.9513 14.8267 15.0402 14.9333C16.8891 16.5156 19.5735 16.6756 21.8135 15.8578C22.0624 15.7511 22.3113 15.6267 22.5602 15.4311C22.8091 15.2533 23.0402 15.0045 23.2358 14.7022C23.4135 14.4178 23.5558 14.0622 23.6091 13.6889C23.6624 13.3333 23.6091 12.9245 23.4669 12.5689ZM11.0224 8.71113C10.9691 8.7289 10.9335 8.74668 10.898 8.78224C10.8802 8.62224 10.738 8.19557 10.578 7.57335C10.2224 6.09779 10.0091 4.05335 10.4713 2.68446C10.5602 2.40002 10.7024 2.13335 10.8802 1.92002C11.058 1.70668 11.2891 1.5289 11.5202 1.42224C11.7691 1.31557 12.018 1.26224 12.2669 1.28002C12.5158 1.29779 12.7469 1.38668 12.9424 1.51113C13.3513 1.76002 13.6002 2.15113 13.7602 2.54224C14.2402 3.73335 14.3291 5.72446 13.6713 7.36001C13.5469 7.66224 13.4402 7.89335 13.3335 8.0889C13.2446 8.28446 13.1558 8.42668 13.1024 8.53335C13.0846 8.58668 13.0491 8.62224 13.0313 8.65779C12.7113 8.55113 12.4091 8.49779 12.1246 8.49779C11.6446 8.49779 11.2535 8.60446 11.0224 8.71113ZM2.57798 14.8267C2.29354 14.7733 2.02687 14.6845 1.79576 14.5422C1.56465 14.4 1.36909 14.2045 1.24465 13.9911C1.1202 13.7778 1.04909 13.5289 1.04909 13.2978C1.04909 13.0667 1.1202 12.8356 1.24465 12.6222C1.45798 12.2133 1.83131 11.9289 2.18687 11.7156C2.52465 11.5378 2.8802 11.3956 3.2002 11.2711C4.28465 10.88 5.65354 10.7378 6.86242 10.9511C7.18242 11.0045 7.43131 11.0756 7.62687 11.1289C7.82242 11.1822 7.98242 11.2356 8.08909 11.2533C8.10687 11.2533 8.12465 11.2711 8.14242 11.2711C8.10687 11.4133 8.07131 11.5556 8.05354 11.7156C8.01798 12.0178 8.0002 12.3733 8.07131 12.7289C8.12465 12.9778 8.19576 13.2445 8.30242 13.5111C8.30242 13.5289 5.01354 15.2178 2.57798 14.8267ZM7.14687 22.7378C6.86242 22.7556 6.57798 22.6845 6.36465 22.5422C6.15131 22.4 5.97354 22.2045 5.84909 21.9733C5.06687 20.48 6.54242 16.8711 8.6402 15.1467C8.81798 15.0045 8.9602 14.8978 9.06687 14.8089C9.10242 14.7911 9.13798 14.7556 9.15576 14.7378C9.51131 15.1111 9.97354 15.4489 10.5069 15.6978C10.7913 15.8222 11.1113 15.9467 11.4491 16.0178C10.9335 18.2578 9.45798 22.6489 7.14687 22.7378ZM14.098 9.2089C14.1513 9.22668 14.4002 8.78224 14.898 8.12446C16.1602 6.45335 17.778 5.24446 18.7024 4.83557C18.9869 4.71113 19.2891 4.62224 19.5735 4.60446C19.858 4.58668 20.1602 4.60446 20.4091 4.69335C20.6758 4.78224 20.8713 4.92446 21.0135 5.12002C21.1558 5.31557 21.2269 5.54668 21.2446 5.77779C21.2802 6.25779 21.0491 6.70224 20.818 7.07557C19.7513 8.67557 18.1869 9.86668 16.1602 10.56C15.9469 10.6311 15.7869 10.6667 15.6624 10.72C15.538 10.7556 15.4491 10.7911 15.3958 10.8267C15.3246 10.8622 15.3069 10.8978 15.2891 10.9156C15.2535 10.7911 15.2002 10.6667 15.1469 10.56C14.898 9.99113 14.5602 9.56446 14.098 9.2089ZM18.0446 21.1022C18.0269 21.3867 17.938 21.6889 17.8135 21.92C17.298 22.8622 16.2313 22.6311 15.378 21.8311C14.0269 20.5156 13.0846 18.7911 12.7469 16.5867C12.7113 16.3733 12.6935 16.2133 12.6758 16.0889C12.978 16.0533 13.2802 15.9822 13.5824 15.84C13.9558 15.6622 14.2935 15.3956 14.5424 15.0756C14.5602 15.0578 14.578 15.0222 14.5958 15.0045C15.9113 16.4267 18.1869 19.1645 18.0446 21.1022ZM22.6491 14.3289C22.3646 14.7556 21.9558 15.0222 21.5469 15.2C18.6669 16.3911 16.2135 15.04 15.2891 14.6311C15.1824 14.56 15.0935 14.5245 15.0402 14.5067C14.9869 14.4889 14.9691 14.4889 14.9335 14.4889C15.3424 13.7245 15.538 12.8533 15.5024 12.0178C15.7158 11.9467 16.0891 11.8222 16.5869 11.68C18.1513 11.2533 21.2446 10.9511 22.4002 12.1067C22.6135 12.32 22.7735 12.5689 22.8624 12.8356C23.058 13.3333 22.9335 13.9022 22.6491 14.3289Z" fill="black"/>
</svg>
