<svg width="24" height="24" viewBox="0 0 24 24" fill="none" xmlns="http://www.w3.org/2000/svg">
<path d="M20.0212 4.87502H16.3543C16.5926 2.50257 15.2448 1.13331 18.6043 1.50021C18.7025 1.49827 18.796 1.4579 18.8648 1.38776C18.9335 1.31763 18.972 1.22333 18.972 1.12511C18.972 1.0269 18.9335 0.932597 18.8648 0.862465C18.796 0.792333 18.7025 0.751962 18.6043 0.750023C14.6433 0.364523 15.7581 1.96573 15.6043 4.87502H12.5405C8.62585 -6.36716 -4.02429 7.98881 7.53682 10.4903C8.14892 12.015 7.80274 23.4435 9.90325 23.2502C10.87 22.8849 19.56 24.215 19.4237 22.2445L20.3474 13.5612C20.0888 12.5748 22.3537 4.55617 20.0212 4.87502ZM3.60432 5.62503C3.60555 4.53139 4.04054 3.48289 4.81386 2.70957C5.58718 1.93625 6.63567 1.50126 7.72931 1.50002C13.2017 1.72659 13.2001 9.52428 7.72929 9.75003C6.63566 9.74879 5.58717 9.31379 4.81385 8.54047C4.04054 7.76715 3.60555 6.71866 3.60432 5.62503ZM8.28856 10.4654C9.47588 10.3271 10.5712 9.75791 11.3667 8.86571C12.1622 7.97351 12.6026 6.82037 12.6043 5.62503H15.6043C15.4646 7.68762 15.9654 8.81096 15.8936 10.7182C14.5987 10.4265 13.2525 10.4528 11.9699 10.7948C10.6874 11.1369 9.50688 11.7846 8.52928 12.6825C8.52417 12.6867 8.28856 10.4654 8.28856 10.4654ZM18.6779 22.1646C18.9943 22.8894 10.0725 22.3375 9.904 22.5003C9.21625 22.905 8.80537 13.7928 8.62488 13.6474C11.4536 10.4788 16.753 10.4827 19.5842 13.6455L18.6779 22.1646ZM19.687 12.6878C18.7963 11.8465 17.7189 11.2281 16.5431 10.8835C16.4704 9.68488 16.3537 8.52399 16.325 7.32654C16.419 6.76396 16.4289 6.19052 16.3543 5.62503C22.2242 5.6304 20.146 4.62129 19.687 12.6878Z" fill="black"/>
<path d="M13.9166 14.4508C13.89 14.4854 13.853 14.5334 13.8857 14.4906C13.8801 14.4967 13.8749 14.5032 13.8694 14.5096C13.6567 14.5669 13.4603 14.6732 13.296 14.8199C13.1316 14.9666 13.0038 15.1497 12.9228 15.3546C12.8418 15.5595 12.8098 15.7805 12.8293 15.9999C12.8489 16.2194 12.9194 16.4312 13.0354 16.6186C13.1513 16.8059 13.3095 16.9635 13.4972 17.0789C13.6849 17.1943 13.8969 17.2642 14.1165 17.283C14.336 17.3019 14.5569 17.2692 14.7615 17.1875C14.9661 17.1058 15.1488 16.9774 15.295 16.8126C15.4551 16.6443 15.5736 16.4408 15.6409 16.2184C15.7082 15.9961 15.7226 15.7611 15.6828 15.5322C15.643 15.3033 15.5501 15.0869 15.4117 14.9003C15.2732 14.7138 15.093 14.5622 14.8854 14.4578C14.7395 14.3696 14.5725 14.3224 14.402 14.3212C14.2315 14.32 14.0638 14.3647 13.9166 14.4508ZM14.3191 15.0027C15.5709 15.159 15.1914 16.896 14.0129 16.6436C13.8272 16.5851 13.6627 16.4733 13.5398 16.3223C13.417 16.1712 13.3412 15.9874 13.3218 15.7936C13.3024 15.5998 13.3403 15.4046 13.4308 15.2322C13.5213 15.0598 13.6604 14.9177 13.8309 14.8236C13.9649 14.9432 14.1395 15.0072 14.3191 15.0027Z" fill="black"/>
<path d="M16.311 13.41C16.3037 13.4038 16.3009 13.3975 16.2944 13.3937C16.2984 13.4005 16.3041 13.4061 16.311 13.41Z" fill="black"/>
<path d="M15.9438 13.9743C15.9524 13.9768 15.9613 13.978 15.9702 13.978C15.9829 13.9773 15.9792 13.9728 15.9438 13.9743Z" fill="black"/>
<path d="M16.0633 13.9784C16.0733 13.9782 16.0831 13.977 16.0928 13.9748C16.0607 13.9728 16.0542 13.9769 16.0633 13.9784Z" fill="black"/>
<path d="M15.6009 13.7315L15.6036 13.7361C15.5974 13.7151 15.5897 13.7123 15.6009 13.7315Z" fill="black"/>
<path d="M15.4875 14.4273C15.6531 14.5317 15.8455 14.5853 16.0412 14.5816C16.2369 14.5778 16.4272 14.5169 16.5887 14.4062C16.7501 14.2956 16.8756 14.1401 16.9498 13.959C17.0239 13.7779 17.0434 13.579 17.0058 13.3869C16.905 12.931 16.2341 12.5239 15.8761 12.9362C15.8836 12.9038 15.8827 12.87 15.8733 12.838C15.8639 12.8061 15.8465 12.7771 15.8226 12.7539C15.7987 12.7307 15.7693 12.7141 15.7371 12.7057C15.7049 12.6972 15.6711 12.6972 15.6389 12.7057C15.4802 12.7676 15.3403 12.8696 15.2329 13.0019C15.1255 13.1341 15.0544 13.292 15.0264 13.46C14.9935 13.6491 15.0202 13.8438 15.1028 14.0171C15.1854 14.1904 15.3198 14.3338 15.4875 14.4273ZM16.3307 13.8316C16.3406 13.8205 16.3469 13.8143 16.3307 13.8316V13.8316ZM16.4048 13.5718C16.3988 13.5478 16.4045 13.5372 16.4046 13.5637L16.4048 13.5718ZM15.5556 13.4535C15.5722 13.3073 15.6448 13.1732 15.7582 13.0794C15.7239 13.1078 15.7813 13.065 15.7884 13.0604C15.8065 13.0487 15.8226 13.0342 15.8362 13.0176C15.8063 13.3091 16.0996 13.2622 16.2944 13.3937C16.2937 13.395 16.3391 13.4204 16.311 13.4099C16.5297 13.5859 16.3395 13.9464 16.0928 13.9748C16.0211 13.9862 15.9477 13.9807 15.8784 13.9587C15.8092 13.9368 15.746 13.8991 15.6939 13.8485C15.6417 13.7979 15.6021 13.7359 15.5781 13.6673C15.5541 13.5988 15.5464 13.5256 15.5556 13.4535Z" fill="black"/>
<path d="M16.0139 13.2802C16.0086 13.2781 16.0053 13.2769 15.9976 13.2745C16.0051 13.2789 16.0157 13.2816 16.0139 13.2802Z" fill="black"/>
<path d="M16.5633 18.6985C16.5619 18.6912 16.56 18.684 16.5576 18.6769C16.5581 18.6844 16.5601 18.6917 16.5633 18.6985Z" fill="black"/>
<path d="M16.4619 18.7748C16.471 18.7785 16.4802 18.7816 16.4897 18.7842C16.4809 18.7797 16.4716 18.7766 16.4619 18.7748Z" fill="black"/>
<path d="M16.3673 18.498C16.3634 18.4961 16.3594 18.4939 16.3555 18.4922C16.3688 18.5001 16.3722 18.5015 16.3673 18.498Z" fill="black"/>
<path d="M16.4912 18.5689L16.4814 18.5601C16.4941 18.5723 16.4967 18.5747 16.4912 18.5689Z" fill="black"/>
<path d="M16.4458 18.0946C16.4389 18.0933 16.4318 18.0934 16.4249 18.0922C16.4129 18.0575 16.3904 18.0272 16.3605 18.0058C16.3306 17.9843 16.2947 17.9727 16.2579 17.9724C16.2211 17.9722 16.1851 17.9833 16.1549 18.0044C16.1247 18.0255 16.1018 18.0554 16.0893 18.09C16.058 18.0896 16.0273 18.0983 16.0008 18.115C15.9744 18.1318 15.9535 18.156 15.9406 18.1845C15.9277 18.213 15.9234 18.2447 15.9283 18.2756C15.9332 18.3065 15.9469 18.3354 15.968 18.3586C15.7715 18.8426 16.2357 19.4207 16.746 19.1723C17.2317 18.8975 16.9496 18.1486 16.4458 18.0946ZM16.3464 18.6709L16.3453 18.6673C16.3546 18.6834 16.3506 18.6854 16.3464 18.6709H16.3464ZM16.4521 18.7721C16.4244 18.7569 16.399 18.7379 16.3767 18.7155C16.3247 18.6777 16.3177 18.5622 16.3284 18.4827C16.3951 18.505 16.4568 18.5401 16.5101 18.5861C16.5073 18.5737 16.5247 18.6058 16.53 18.6079C16.5282 18.6094 16.5355 18.6216 16.5424 18.6342C16.5385 18.6179 16.554 18.6584 16.5574 18.6634C16.5522 18.6575 16.5548 18.6672 16.5575 18.6768C16.5613 18.6738 16.5633 18.7047 16.566 18.7129C16.5653 18.7582 16.5499 18.804 16.4894 18.7841C16.4871 18.7879 16.4611 18.774 16.4521 18.7721V18.7721Z" fill="black"/>
<path d="M14.2492 19.4635C14.2447 19.468 14.2407 19.4729 14.2373 19.4781C14.2499 19.4656 14.2524 19.4614 14.2492 19.4635Z" fill="black"/>
<path d="M14.3148 19.3884C14.3132 19.3895 14.3118 19.3907 14.3105 19.3922L14.3148 19.3884Z" fill="black"/>
<path d="M14.2637 20.0158C14.2696 20.0146 14.2717 20.014 14.2637 20.0158V20.0158Z" fill="black"/>
<path d="M14.1313 19.9825C14.1351 19.9893 14.1404 19.9951 14.1468 19.9995C14.1433 19.9925 14.138 19.9866 14.1313 19.9825Z" fill="black"/>
<path d="M14.3257 19.9935C14.3326 19.989 14.3389 19.9838 14.3446 19.978C14.3476 19.9734 14.3418 19.9765 14.3257 19.9935Z" fill="black"/>
<path d="M14.5287 18.9305C14.4905 18.924 14.4514 18.927 14.4146 18.9391C14.3779 18.9513 14.3447 18.9723 14.318 19.0003C13.8132 18.8415 13.5031 19.5242 13.5074 19.9367C13.5148 20.1245 13.5961 20.3018 13.7336 20.43C13.871 20.5583 14.0535 20.6271 14.2414 20.6215C15.1483 20.6007 15.3156 19.2491 14.5287 18.9305ZM14.306 19.3939L14.3041 19.3962C14.2983 19.3995 14.2972 19.3995 14.306 19.3939ZM14.3304 19.3782V19.3784C14.3278 19.3798 14.3287 19.3793 14.3304 19.3782ZM14.1638 20.0086C14.1737 20.0111 14.1834 20.0147 14.1925 20.0194C14.1821 20.0187 14.1721 20.015 14.1638 20.0086ZM14.1862 20.0195L14.1925 20.0204C14.1903 20.0207 14.1881 20.0204 14.1862 20.0195ZM14.4397 19.7842C14.4223 19.898 14.3622 20.0169 14.2276 20.025C14.2444 20.0205 14.2574 20.0172 14.2632 20.0158C14.2253 20.0257 14.185 20.0204 14.1508 20.0012C14.1456 20.0022 14.1175 19.9764 14.1277 19.9806C14.106 19.8789 14.1098 19.7734 14.1388 19.6735C14.1679 19.5737 14.2213 19.4826 14.2943 19.4086C14.2923 19.4119 14.3064 19.3953 14.3104 19.3922C14.31 19.4424 14.3363 19.5274 14.4134 19.523C14.4441 19.6065 14.4531 19.6963 14.4397 19.7842H14.4397Z" fill="black"/>
<path d="M14.4082 19.8922L14.4083 19.892C14.4228 19.8643 14.4187 19.8466 14.4082 19.8922Z" fill="black"/>
<path d="M11.3541 15.2973C11.9572 15.4128 12.4523 14.6524 12.2155 14.1216C12.057 13.7323 11.362 13.7498 11.3795 14.2227C11.3037 14.0553 11.0988 14.1349 10.9962 14.2337C10.918 14.3179 10.8641 14.4216 10.8399 14.5339C10.8158 14.6463 10.8224 14.763 10.859 14.8719C10.8957 14.9807 10.961 15.0777 11.0481 15.1526C11.1353 15.2275 11.241 15.2775 11.3541 15.2973ZM11.7345 14.3654C11.743 14.3582 11.752 14.3515 11.7614 14.3454C11.7467 14.356 11.7394 14.3616 11.7345 14.3654V14.3654ZM11.6936 14.3765C11.6769 14.3762 11.6603 14.3722 11.6437 14.3705C11.6603 14.3731 11.6769 14.3745 11.6936 14.3765V14.3765ZM11.2892 14.5282C11.3214 14.4418 11.4005 14.3731 11.3946 14.2764C11.407 14.3048 11.4253 14.3303 11.4482 14.3512C11.4711 14.3721 11.4982 14.3879 11.5276 14.3977C11.557 14.4075 11.5882 14.411 11.6191 14.4079C11.6499 14.4049 11.6798 14.3954 11.7068 14.38C11.7139 14.3809 11.721 14.3826 11.7278 14.3851C11.7294 14.4969 11.695 14.6063 11.6298 14.6971C11.607 14.7417 11.5676 14.7756 11.5201 14.7913C11.4726 14.807 11.4208 14.8034 11.3759 14.7812C11.3311 14.7589 11.2968 14.7199 11.2806 14.6725C11.2643 14.6252 11.2674 14.5733 11.2892 14.5282V14.5282Z" fill="black"/>
<path d="M11.6284 14.6985L11.6297 14.6971L11.6284 14.6985Z" fill="black"/>
<path d="M11.8698 16.9371C11.7021 16.8878 11.5223 16.8995 11.3623 16.9701C11.2023 17.0407 11.0725 17.1656 10.9958 17.3228C10.1182 17.8596 9.97638 19.4103 10.9034 19.9662C12.5504 20.6482 13.657 17.3445 11.8698 16.9371ZM11.7257 17.615C11.7562 17.6151 11.7414 17.6164 11.7257 17.615V17.615ZM11.9793 18.8882C11.8434 19.1614 11.5582 19.6015 11.1933 19.4673C10.5826 19.1258 10.7452 18.1219 11.1566 17.6739C11.2826 17.7037 11.4101 17.6242 11.5368 17.6193C12.2393 17.5224 12.2509 18.4457 11.9793 18.8882Z" fill="black"/>
<path d="M7.74169 4.02175C7.82282 3.6847 7.84431 3.33605 7.80518 2.9916C7.8088 2.6414 7.76321 2.29244 7.66976 1.95492C7.04087 1.37952 7.20875 3.21021 7.17913 3.51059C7.16665 3.7068 7.20359 3.90299 7.28655 4.08123C7.31217 4.12227 7.34904 4.15507 7.39278 4.17573C7.43652 4.1964 7.48527 4.20405 7.53324 4.19778C7.58121 4.19151 7.62636 4.17159 7.66332 4.14038C7.70028 4.10916 7.72748 4.06799 7.74169 4.02175Z" fill="black"/>
<path d="M10.1121 3.69437C10.2208 3.59588 10.3126 3.48018 10.3838 3.3519C10.4044 3.31469 10.4137 3.27228 10.4105 3.22987C10.4073 3.18745 10.3918 3.1469 10.3659 3.11318C10.34 3.07946 10.3048 3.05405 10.2646 3.04007C10.2244 3.0261 10.1811 3.02416 10.1398 3.03451C9.74614 3.19744 9.39714 3.45217 9.12195 3.77744C9.00263 3.93577 8.68991 4.1129 8.83503 4.33581C8.86438 4.37349 8.90629 4.39936 8.95313 4.40871C8.99996 4.41805 9.04859 4.41026 9.09016 4.38674C9.45613 4.19572 9.79902 3.96342 10.1121 3.69437Z" fill="black"/>
<path d="M10.9255 5.47271C11.1618 5.42286 11.2965 5.14372 11.0688 4.98648C10.6217 4.84283 10.1371 5.11891 9.68939 5.19264C9.62515 5.21107 9.57069 5.25395 9.53769 5.31207C9.5047 5.37019 9.4958 5.43893 9.5129 5.50354C9.53241 5.56707 9.57547 5.62073 9.63326 5.65354C9.69105 5.68635 9.7592 5.69583 9.82375 5.68003C10.1962 5.64198 10.5647 5.57263 10.9255 5.47271Z" fill="black"/>
<path d="M10.3154 7.32456C10.1364 7.16569 9.93113 7.03904 9.70883 6.95023C9.54288 6.84383 9.25021 6.89194 9.26679 7.13226C9.28321 7.32276 9.47145 7.44095 9.60256 7.55912C9.74723 7.70014 9.92376 7.80421 10.1172 7.8625C10.4632 7.92774 10.57 7.52185 10.3154 7.32456Z" fill="black"/>
<path d="M8.044 8.65332C8.0151 8.21765 7.9595 7.78415 7.8775 7.35529C7.29167 6.82339 7.39814 9.04601 7.58971 9.2545C7.61709 9.29848 7.65654 9.33365 7.70337 9.35581C7.75019 9.37797 7.8024 9.38619 7.85377 9.37947C7.90514 9.37276 7.95348 9.3514 7.99304 9.31795C8.0326 9.2845 8.06169 9.24037 8.07684 9.19084C8.09892 9.01117 8.08779 8.82897 8.044 8.65332Z" fill="black"/>
<path d="M5.8005 6.10505C6.0457 6.05893 6.2567 5.75173 5.993 5.58133C5.84366 5.5069 5.67308 5.48675 5.51051 5.52433C5.08698 5.56625 4.66998 5.6586 4.26836 5.79942C4.23338 5.82095 4.20537 5.85213 4.1877 5.88922C4.17003 5.9263 4.16346 5.96771 4.16879 6.00844C4.17411 6.04917 4.1911 6.08749 4.21771 6.11879C4.24431 6.15008 4.2794 6.17302 4.31875 6.18483C4.81396 6.22777 5.31276 6.20092 5.8005 6.10505Z" fill="black"/>
<path d="M6.373 4.16131C5.95135 3.92307 5.51629 3.70938 5.07 3.52131C5.04234 3.50636 5.01026 3.50173 4.9795 3.50826C4.94874 3.51478 4.92131 3.53203 4.9021 3.55693C4.8829 3.58182 4.87317 3.61274 4.87466 3.64414C4.87615 3.67555 4.88877 3.7054 4.91025 3.72837C5.44368 4.10497 5.93877 4.66324 6.59059 4.80135C6.62583 4.8008 6.66033 4.79109 6.69069 4.77319C6.72104 4.75529 6.74623 4.72981 6.76377 4.69924C6.78131 4.66867 6.7906 4.63406 6.79074 4.59882C6.79087 4.56358 6.78184 4.5289 6.76453 4.4982C6.6638 4.35534 6.52929 4.2396 6.373 4.16131Z" fill="black"/>
<path d="M6.3254 6.76034C5.93305 7.07391 5.59724 7.45228 5.33248 7.87909C5.16273 8.20834 5.30938 8.4283 5.65484 8.20144C5.89441 7.94018 6.94002 7.12515 6.57762 6.77811C6.54193 6.7508 6.49901 6.73456 6.45417 6.7314C6.40934 6.72824 6.36457 6.73831 6.3254 6.76034Z" fill="black"/>
</svg>
