<svg width="22" height="22" viewBox="0 0 22 22" fill="none" xmlns="http://www.w3.org/2000/svg">
<path d="M4.57929 3.08006C5.44299 2.64006 6.2741 2.4282 7.04003 2.24894C9.17484 1.76006 11.6519 1.64598 13.7378 2.36302C14.08 2.47709 14.3734 2.60746 14.6341 2.72154C14.8785 2.85191 15.0904 2.98228 15.286 3.08006C15.6282 3.3245 15.8726 3.48746 16.003 3.63413C16.2963 3.91117 16.28 3.96006 16.2474 3.99265C16.2148 4.02524 16.166 4.04154 15.84 3.84598C15.6771 3.73191 15.4326 3.61783 15.0904 3.40598C14.9111 3.3245 14.6993 3.21043 14.4548 3.11265C14.2104 3.01487 13.9171 2.9008 13.5911 2.80302C11.5378 2.20006 9.22373 2.33043 7.1704 2.83561C6.43707 3.01487 5.62225 3.22672 4.85633 3.63413C1.95559 5.28006 0.651884 8.71857 0.896328 12.0267C0.928921 12.7438 1.05929 13.526 1.23855 14.3408C1.28744 14.5526 1.33633 14.7482 1.38522 14.9601C1.41781 15.0741 1.43411 15.1719 1.4667 15.286C1.49929 15.4001 1.51559 15.5141 1.53188 15.6282C1.61337 16.0682 1.67855 16.5082 1.82522 16.883C1.9067 17.0623 2.00448 17.2415 2.11855 17.3393C2.24892 17.4534 2.39559 17.5023 2.57485 17.5349C2.96596 17.5675 3.42225 17.4534 3.89485 17.3393C4.90522 17.0786 6.06225 17.1764 7.04003 17.6489C7.52892 17.8771 7.96892 18.1541 8.40892 18.4149C9.25633 18.9038 10.2178 19.3926 11.1956 19.5393C11.6845 19.6208 12.1734 19.6045 12.646 19.4904C13.4608 19.2949 14.1941 18.7734 14.7156 18.1052C13.1348 18.0889 12.7437 17.9912 12.646 17.8934C12.2874 17.9912 11.9289 17.9912 11.603 17.926C11.2119 17.8445 10.8534 17.6652 10.6089 17.4208C10.3808 17.2089 10.2178 16.9645 10.12 16.7201C9.84299 16.0519 9.94077 15.3349 10.283 14.8297C10.4785 14.5364 10.7067 14.3571 10.9023 14.243C11.0815 14.1126 11.2608 14.0475 11.4074 14.0149C11.7008 13.9497 11.8637 13.9823 11.9452 13.9986C12.0267 14.0312 12.0267 14.0801 12.0267 14.1289C12.0267 14.1778 12.0267 14.2104 11.9615 14.2593C11.8963 14.3082 11.766 14.3571 11.5541 14.4549C11.44 14.5038 11.326 14.5852 11.1793 14.683C11.0326 14.7971 10.886 14.9438 10.7719 15.1393C10.6578 15.3349 10.5763 15.6119 10.5926 15.9378C10.6089 16.2638 10.7393 16.6386 11.0489 16.9156C11.2119 17.0623 11.4563 17.2089 11.7334 17.2741C12.0104 17.3393 12.3363 17.3393 12.646 17.2252C12.9393 17.1275 13.2163 16.8993 13.4282 16.6223C13.6237 16.3452 13.7541 16.003 13.7704 15.6771C13.803 15.3512 13.7215 15.0252 13.5748 14.7808C13.4282 14.5364 13.2326 14.3897 13.0208 14.3082C12.8089 14.243 12.6134 14.2267 12.483 14.2267C12.3526 14.2104 12.2711 14.1941 12.2711 14.1778C12.2711 14.1615 12.3363 14.1289 12.483 14.0964C12.6134 14.0638 12.8252 14.0312 13.086 14.0638C13.2163 14.0801 13.3793 14.1452 13.526 14.2267C13.6726 14.1778 14.2593 14.1126 15.1393 14.0638H15.1556C15.1067 13.9334 15.0741 13.7867 15.0415 13.6401C14.5526 11.7497 15.8074 9.72894 17.926 9.53339C18.1378 9.51709 18.3497 9.51709 18.5615 9.53339C18.7245 9.59857 18.9037 9.61487 19.0667 9.59857C19.3763 9.56598 19.6534 9.37043 19.5882 9.0608C19.5556 8.91413 19.4904 8.75117 19.4415 8.5882C19.0341 7.52894 18.5126 6.56746 17.6489 5.57339C17.1763 5.03561 16.8667 4.77487 16.883 4.74228C16.883 4.72598 16.9808 4.79117 17.1274 4.90524C17.2741 5.01932 17.486 5.21487 17.7467 5.47561C18.6267 6.37191 19.2297 7.34968 19.7022 8.49043C19.7674 8.65339 19.8326 8.80006 19.8815 9.01191C19.9793 9.5008 19.5882 9.85931 19.1156 9.9245C18.9037 9.95709 18.6919 9.9408 18.4963 9.9245C18.3334 9.9082 18.1704 9.9082 18.0074 9.9245C18.0074 9.9408 18.0074 9.9408 18.0237 9.95709C18.0563 10.1038 18.0726 10.3971 18.0889 10.9512C18.1541 13.6564 18.1541 13.5423 18.1704 13.9986C18.8711 13.9823 19.1482 13.9823 19.7022 13.9823C19.8978 13.9823 20.1097 13.9823 20.3215 13.9986C20.5334 14.0149 20.7778 14.0638 20.9897 14.1941C21.4134 14.4386 21.6904 14.8949 21.7719 15.3838C21.8208 15.6282 21.8045 15.8563 21.7719 16.0845C21.7067 16.5408 21.5437 16.9482 21.3645 17.323C21.1852 17.6978 20.9734 18.0726 20.7126 18.3986C20.4519 18.7245 20.1097 19.0015 19.7185 19.1808C19.3437 19.3601 18.9037 19.4252 18.5126 19.3601C18.1378 19.2949 17.8608 19.1156 17.6978 18.9363C17.6326 18.8549 17.5674 18.7571 17.5348 18.6756C17.4371 18.4801 17.4045 18.2845 17.3882 18.1052C16.7037 18.1378 16.0356 18.1378 15.5467 18.1378H15.3348C14.7645 19.0341 13.8519 19.7675 12.7763 20.0445C12.2385 20.1912 11.6519 20.2075 11.1141 20.126C10.0548 19.9793 9.04448 19.4904 8.11559 18.9526C7.65929 18.6919 7.23559 18.4312 6.77929 18.2193C5.91559 17.8119 4.93781 17.7304 4.04151 17.9586C3.56892 18.0564 3.08003 18.2193 2.50966 18.1704C2.21633 18.1378 1.9067 18.0238 1.67855 17.8282C1.4504 17.6164 1.30374 17.3719 1.20596 17.1275C1.0104 16.6386 0.961512 16.1823 0.880032 15.7423C0.863735 15.6282 0.847439 15.5304 0.814846 15.4326C0.782255 15.3186 0.765959 15.2208 0.733366 15.123C0.684477 14.9112 0.635588 14.6993 0.5867 14.4875C0.40744 13.6564 0.277069 12.8415 0.22818 12.0756C-0.0325623 8.49043 1.41781 4.82376 4.57929 3.08006ZM21.2178 15.4652C21.2015 15.3023 21.1363 15.123 21.0548 14.9926C20.9734 14.846 20.8593 14.7319 20.7289 14.6504C20.5985 14.5689 20.4356 14.5201 20.2563 14.5038C20.0771 14.4875 19.8815 14.4712 19.686 14.4712C19.1156 14.4549 18.8711 14.4386 18.1704 14.4223V15.3675C18.3823 15.3512 18.643 15.3349 19.0015 15.3186C19.5719 15.3186 20.68 15.3675 21.2178 15.4652C21.2178 15.4815 21.2178 15.4815 21.2178 15.4652ZM18.1215 18.366C18.1378 18.4149 18.1704 18.4475 18.203 18.4801C18.2356 18.5126 18.2519 18.5289 18.3008 18.5778C18.3985 18.643 18.5126 18.6756 18.6267 18.7082C18.8711 18.7571 19.1645 18.7245 19.4578 18.5941C19.7348 18.4638 19.9956 18.2682 20.2237 18.0075C20.2563 17.9749 20.2889 17.926 20.3215 17.8771C19.9467 17.9586 19.0341 18.0238 18.04 18.0726C18.0563 18.1704 18.0726 18.2682 18.1215 18.366ZM20.4193 17.7467C20.566 17.5349 20.6963 17.3067 20.8267 17.0623C21.006 16.7201 21.1526 16.3615 21.2015 16.003C21.2178 15.9215 21.2178 15.8401 21.2341 15.7586C20.7126 15.8889 19.6045 15.9867 19.0015 16.003C18.6267 16.003 18.3497 16.003 18.1541 15.9867C18.1378 16.3289 18.1215 16.6712 18.0889 17.046C18.0726 17.2089 18.0563 17.3556 18.0563 17.5186C19.1156 17.5675 20.126 17.6489 20.4193 17.7467ZM17.3719 17.5023C17.3882 17.323 17.4045 17.1438 17.4208 16.9971C17.5023 16.166 17.5348 15.3838 17.5348 14.4223C16.8667 14.406 16.2311 14.406 15.6934 14.3897C15.7585 14.5852 15.8237 14.7971 15.8563 15.0089C15.9541 15.5141 16.003 16.0519 15.9215 16.5897C15.8726 16.8993 15.7911 17.1926 15.6608 17.486C16.1334 17.4534 16.7363 17.4697 17.3719 17.5023ZM15.5956 14.0801C16.166 14.0475 16.8178 14.0149 17.5348 13.9986C17.5348 13.1186 17.5348 11.7986 17.6163 10.9349C17.6489 10.3808 17.7141 10.1038 17.763 9.9408C16.003 10.2504 14.9926 11.9452 15.4489 13.5749C15.4815 13.7378 15.5304 13.9008 15.5956 14.0801ZM15.4326 16.4919C15.5141 16.0356 15.4815 15.5467 15.4 15.0904C15.3511 14.846 15.286 14.6178 15.2045 14.3734H15.1067C14.3408 14.3571 13.7867 14.3571 13.5585 14.3245C13.6726 14.406 13.7704 14.5038 13.8519 14.6178C14.0637 14.9112 14.2104 15.3023 14.2104 15.726C14.2104 16.1497 14.0963 16.5734 13.8519 16.9645C13.7215 17.1764 13.5585 17.3556 13.363 17.5186C13.7378 17.486 14.2756 17.4697 15.0904 17.4697C15.2534 17.1438 15.3674 16.8178 15.4326 16.4919Z" fill="black"/>
</svg>
