<svg width="26" height="26" viewBox="0 0 26 26" fill="none" xmlns="http://www.w3.org/2000/svg">
<g clip-path="url(#clip0_22_10)">
<path d="M14.4899 17.13C15.5122 17.2682 16.5992 17.1777 17.6294 17.1832C17.6308 17.1832 17.6317 17.1825 17.6331 17.1825C17.927 17.8462 18.3538 18.4556 18.8018 19.0232C19.0948 19.3945 19.6803 20.3333 20.1924 20.402C20.6333 20.4611 20.9016 19.8132 21.0333 19.5185C21.0874 19.3972 21.1357 19.2727 21.1862 19.1495C21.188 19.1493 21.1898 19.1493 21.1916 19.1492C21.2858 19.1453 21.305 19.0389 21.2531 18.9881C21.5293 18.2894 21.7536 17.5645 21.9391 16.8408C22.8038 16.9786 23.7087 16.9565 24.5807 16.9893C25.013 17.0056 25.7256 17.1045 25.9497 16.5999C26.1605 16.125 25.6599 15.7312 25.3556 15.4633C24.5558 14.7594 23.7265 14.0868 22.8938 13.4225C22.8869 13.4171 22.8795 13.416 22.8725 13.4115C23.29 12.5586 23.4196 11.5328 23.5525 10.6043C23.6134 10.1785 23.909 9.20822 23.4577 8.86574C22.9698 8.49542 22.4166 9.13368 22.1213 9.42778C21.3391 10.2067 20.6111 11.0339 19.9217 11.8955C19.32 11.2584 18.6326 10.7071 17.9331 10.1809C17.5866 9.92031 16.7651 9.0446 16.2463 9.29201C15.7351 9.53569 16.0373 10.2941 16.149 10.6479C16.458 11.6267 16.7003 12.7025 17.1654 13.6194C16.4641 13.7009 15.7879 14.3148 15.2457 14.7295C14.849 15.033 14.4652 15.3525 14.0973 15.6906C13.8978 15.8739 13.5669 16.1232 13.5222 16.4264C13.4424 16.9641 14.1014 17.0775 14.4899 17.13ZM14.5149 15.916C15.0403 15.4425 15.5982 15.0054 16.1796 14.6028C16.5749 14.3291 17.0222 14.1359 17.2958 13.7345C17.3002 13.728 17.3 13.7205 17.3019 13.7133C17.3895 13.7063 17.4762 13.6161 17.4604 13.5113C17.3528 12.8012 17.0681 12.1065 16.8486 11.4225C16.7537 11.1262 16.6569 10.8303 16.5635 10.5336C16.4631 10.2144 16.2639 9.77602 16.7323 9.84984C16.9852 9.8897 17.3878 10.311 17.594 10.4635C17.9033 10.6923 18.208 10.9271 18.5086 11.1673C18.9635 11.5308 19.4093 11.9048 19.8765 12.2525C19.9541 12.3585 20.0989 12.4066 20.2028 12.2765C20.6045 11.7733 21.0169 11.28 21.4496 10.8031C21.7539 10.4676 22.5793 9.33018 23.0013 9.48468C23.2668 9.58179 23.2261 9.88249 23.1636 10.1759C22.9779 10.1681 22.7937 10.1523 22.608 10.1301C22.5386 10.1219 22.5217 10.2421 22.5913 10.2531C22.7736 10.2816 22.9567 10.2874 23.1402 10.2855C23.1228 10.3645 23.106 10.4418 23.0964 10.5113C23.0782 10.6432 23.0519 10.7736 23.0314 10.905C22.552 10.8904 22.0739 10.8498 21.5963 10.8102C21.518 10.8037 21.4985 10.9372 21.5775 10.9487C22.0557 11.0188 22.5313 11.0305 23.0132 11.0153C22.9806 11.2169 22.9522 11.4191 22.9132 11.6199C22.9053 11.6176 22.9011 11.611 22.8913 11.6115C22.6789 11.6211 22.4752 11.6039 22.2647 11.5738C22.1677 11.56 22.1218 11.7024 22.2229 11.7253C22.4416 11.7743 22.658 11.783 22.8813 11.7686C22.8383 11.9715 22.7904 12.1738 22.7439 12.3764C22.4426 12.3933 22.1412 12.3911 21.8393 12.3821C21.7446 12.3794 21.747 12.5203 21.8393 12.5278C22.1333 12.5519 22.4235 12.5352 22.7149 12.5032C22.661 12.744 22.6181 12.9864 22.5877 13.2305C22.3241 13.2308 22.0615 13.2123 21.7985 13.1908C21.7122 13.1838 21.6924 13.326 21.778 13.3428C22.0414 13.3947 22.3026 13.3997 22.5684 13.3873C22.566 13.4144 22.5603 13.4408 22.5584 13.4678C22.5582 13.4719 22.5615 13.4739 22.5616 13.4779C22.5092 13.5513 22.5015 13.6481 22.5943 13.7219C22.8344 13.9129 23.0707 14.1084 23.309 14.3017C22.7404 14.2198 22.1714 14.1474 21.597 14.1047C21.4845 14.0963 21.4886 14.2653 21.597 14.2777C22.2504 14.3521 22.9044 14.4235 23.5571 14.503C23.6874 14.6095 23.8197 14.7136 23.9491 14.821C24.1249 14.967 24.2996 15.1144 24.4741 15.2618C24.0816 15.2481 23.6897 15.238 23.2958 15.247C23.1893 15.2495 23.1915 15.4033 23.2958 15.4109C23.7688 15.4455 24.2403 15.4541 24.7137 15.4593C25.0124 15.6923 25.274 15.8337 25.2382 16.2339C24.5795 16.1604 23.9167 16.1119 23.2552 16.0786C23.1201 16.0717 23.1252 16.2721 23.2552 16.2857C23.9017 16.3533 24.5519 16.4064 25.2017 16.4357C25.12 16.6983 24.9465 16.5885 24.5806 16.5773C24.292 16.5686 24.0036 16.5609 23.715 16.553C23.0934 16.5358 22.4582 16.4837 21.8395 16.5524C21.7357 16.5639 21.6756 16.6896 21.7181 16.7665C21.6931 16.8312 21.669 16.8962 21.6442 16.9609C21.4621 16.9395 21.2156 16.9318 21.198 16.9316C20.9789 16.9278 20.7628 16.9368 20.5441 16.9485C20.4386 16.9541 20.4387 17.1062 20.5441 17.1123C20.8466 17.13 21.1466 17.1373 21.4494 17.1277C21.4899 17.1264 21.5347 17.1278 21.5803 17.1286C21.4915 17.3612 21.4031 17.594 21.3146 17.8267C20.7225 17.8003 20.1235 17.7589 19.5324 17.7968C19.3706 17.8071 19.3721 18.034 19.5324 18.0472C20.0942 18.0934 20.6644 18.0681 21.2289 18.052C21.1897 18.1551 21.1505 18.2583 21.1112 18.3614C21.0561 18.506 20.9981 18.7234 20.9238 18.9469C20.6215 18.9312 20.3119 18.9175 20.018 18.9568C19.8924 18.9735 19.8922 19.1358 20.018 19.1526C20.2864 19.1883 20.5676 19.1796 20.8446 19.1659C20.6745 19.5988 20.4233 19.972 19.9839 19.7809C19.5808 19.6057 19.0334 18.6603 18.8015 18.329C18.4851 17.8769 18.2265 17.3908 17.919 16.9341C17.8965 16.9005 17.8642 16.8807 17.8292 16.8682C17.8003 16.7924 17.7345 16.7324 17.6293 16.7324C16.9545 16.7324 16.2797 16.7331 15.6049 16.7324C15.2815 16.7321 14.8299 16.8038 14.5209 16.688C14.2595 16.7225 14.1248 16.5888 14.1162 16.2875C14.2472 16.1615 14.3801 16.0376 14.5149 15.916Z" fill="black"/>
<path d="M18.2931 19.9148C18.3803 19.8832 18.3467 19.7522 18.2544 19.7743C13.7644 20.8464 9.48611 19.9496 6.16216 16.6413C3.3748 13.867 1.90753 10.2831 0.236792 6.80327C0.17617 6.67699 -0.0435047 6.76678 0.0079937 6.89978C2.89103 14.3451 9.00978 23.2697 18.2931 19.9148Z" fill="black"/>
<path d="M3.41876 5.62632C6.34381 9.0307 10.967 10.307 15.3295 9.98695C15.4409 9.97879 15.4436 9.81457 15.3295 9.81169C10.7906 9.69681 6.91149 8.69746 3.63927 5.40581C3.49594 5.26164 3.28935 5.47579 3.41876 5.62632Z" fill="black"/>
<path d="M2.23015 7.9137C5.30177 11.6708 10.6122 13.8009 15.4186 12.8275C15.4826 12.8145 15.4683 12.7107 15.4031 12.7134C10.2835 12.9323 6.00149 11.4564 2.40877 7.73508C2.29353 7.61563 2.12919 7.7903 2.23015 7.9137Z" fill="black"/>
<path d="M4.22192 11.5411C6.06347 14.6393 9.45536 16.7191 13.0139 17.1122C13.1195 17.1239 13.1427 16.9484 13.039 16.9267C9.44252 16.1741 6.67653 14.3138 4.5069 11.3745C4.38385 11.2078 4.11076 11.354 4.22192 11.5411Z" fill="black"/>
</g>
<defs>
<clipPath id="clip0_22_10">
<rect width="26" height="26" fill="white" transform="translate(26 26) rotate(-180)"/>
</clipPath>
</defs>
</svg>
